<svg width="64" height="64" viewBox="0 0 64 64" fill="none" xmlns="http://www.w3.org/2000/svg">
<rect width="64" height="64" rx="16" fill="black"/>
<g clip-path="url(#clip0_5915_130)">
<path d="M48.336 14H15.6639C14.7868 14 14.0757 14.7111 14.0757 15.5883V48.4118C14.0757 49.2889 14.7868 50 15.6639 50H48.336C49.2132 50 49.9243 49.2889 49.9243 48.4117V15.5883C49.9242 14.7111 49.2132 14 48.336 14ZM30.4117 46.8236H17.2522V32.5294H28.6708L22.431 40.0087C21.8691 40.6822 21.9596 41.6837 22.6331 42.2458C22.9303 42.4936 23.2909 42.6145 23.6497 42.6145C24.1045 42.6145 24.556 42.4201 24.8701 42.0437L30.4117 35.4013V46.8236H30.4117ZM22.6977 27.7652C22.6977 27.3419 22.8635 26.9437 23.1646 26.6439C23.4677 26.3421 23.8709 26.1759 24.3002 26.1759C24.7294 26.1759 25.1326 26.3421 25.4354 26.6435L28.1548 29.352H24.341C24.3341 29.352 24.327 29.3522 24.3201 29.3522L24.2983 29.3523C23.8689 29.3523 23.4663 29.187 23.1646 28.8864C22.8635 28.5866 22.6977 28.1884 22.6977 27.7652ZM30.4117 27.1169L27.6765 24.3926C26.7741 23.4943 25.5748 22.9995 24.3 22.9995C23.0251 22.9995 21.826 23.4943 20.9233 24.3927C20.019 25.2931 19.5209 26.4908 19.521 27.7654C19.521 28.3148 19.6141 28.8498 19.7919 29.3529H17.2522V17.1765H30.4117V27.1169H30.4117ZM46.7477 46.8234H33.5882V35.4012L39.13 42.0436C39.4442 42.4201 39.8956 42.6144 40.3503 42.6144C40.7091 42.6144 41.0699 42.4934 41.367 42.2457C42.0405 41.6837 42.1311 40.6822 41.569 40.0085L35.329 32.5292H46.7477V46.8234ZM35.8456 29.3522L38.5654 26.6435C38.868 26.3421 39.271 26.1761 39.7002 26.1761C40.1294 26.1761 40.5324 26.3421 40.8354 26.6439C41.1366 26.9436 41.3024 27.3419 41.3024 27.7653C41.3024 28.1885 41.1366 28.5868 40.8353 28.8867C40.5335 29.1871 40.131 29.3525 39.7015 29.3525L39.6798 29.3523C39.6728 29.3522 39.6658 29.3522 39.6588 29.3522H35.8456ZM46.7477 29.3529H44.208C44.3858 28.8497 44.4789 28.3147 44.4789 27.7653C44.4789 26.4907 43.9809 25.293 43.0768 24.3929C42.1745 23.4944 40.9753 22.9994 39.7002 22.9994C38.425 22.9994 37.2259 23.4944 36.3238 24.3929L33.5882 27.1171V17.1765H46.7478V29.3529H46.7477Z" fill="#FFD600"/>
</g>
<defs>
<clipPath id="clip0_5915_130">
<rect width="36" height="36" fill="white" transform="translate(14 14)"/>
</clipPath>
</defs>
</svg>
