<svg width="14" height="16" viewBox="0 0 14 16" fill="none" xmlns="http://www.w3.org/2000/svg">
<path d="M2.14062 13.5H11.8594C12.8932 13.5 13.7344 12.6589 13.7344 11.625V1.875C13.7344 0.841125 12.8932 0 11.8594 0H2.14062C1.10675 0 0.265625 0.841125 0.265625 1.875V14.125C0.265625 15.1589 1.10675 16 2.14062 16H11.2344H11.8594C12.8932 16 13.7344 15.1589 13.7344 14.125V14.1234C13.2117 14.5167 12.5623 14.75 11.8594 14.75H11.2344H2.14062C1.796 14.75 1.51562 14.4696 1.51562 14.125C1.51562 13.7804 1.796 13.5 2.14062 13.5ZM1.51562 1.875C1.51562 1.53038 1.796 1.25 2.14062 1.25H11.8594C12.204 1.25 12.4844 1.53038 12.4844 1.875V11.625C12.4844 11.9696 12.204 12.25 11.8594 12.25H2.14062C1.92159 12.25 1.71119 12.2878 1.51562 12.3571V1.875ZM6.45034 3.78125C6.45034 3.34978 6.80013 3 7.23159 3C7.66306 3 8.01284 3.34978 8.01284 3.78125C8.01284 4.21272 7.66306 4.5625 7.23159 4.5625C6.80013 4.5625 6.45034 4.21272 6.45034 3.78125ZM5.65553 7.02547L5.10813 5.90169C5.10844 5.90156 5.19631 5.85872 5.61994 5.65203C6.12819 5.404 6.72703 5.45809 7.18275 5.79319C7.63831 6.12822 7.86837 6.68359 7.78312 7.24259C7.78013 7.26213 7.77622 7.28156 7.77141 7.30075L7.27528 9.27409C7.26503 9.39897 7.33728 9.47266 7.38303 9.50631C7.43144 9.54187 7.53138 9.59247 7.65713 9.53106L8.08178 9.32388L8.62991 10.4473L8.20528 10.6545C7.99356 10.7578 7.76609 10.8087 7.53984 10.8087C7.22291 10.8087 6.90834 10.7089 6.64247 10.5133C6.18688 10.1783 5.95684 9.62294 6.04213 9.06394C6.04513 9.04437 6.04903 9.02497 6.05384 9.00578L6.54997 7.03244C6.56022 6.90756 6.48794 6.83387 6.44219 6.80022C6.39381 6.76466 6.29381 6.71409 6.16809 6.77544C5.74312 6.98281 5.65553 7.02547 5.65553 7.02547Z" fill="white"/>
</svg>
