<svg width="103" height="30" viewBox="0 0 103 30" fill="none" xmlns="http://www.w3.org/2000/svg">
<path d="M10.68 0.899999V4.02H5.04V6.5H9.2V9.48H5.04V15H1.12V0.899999H10.68ZM17.5509 15.14C16.4309 15.14 15.4243 14.9067 14.5309 14.44C13.6509 13.9733 12.9576 13.3067 12.4509 12.44C11.9443 11.5733 11.6909 10.5533 11.6909 9.38C11.6909 8.22 11.9443 7.20667 12.4509 6.34C12.9709 5.47333 13.6709 4.80667 14.5509 4.34C15.4443 3.87333 16.4509 3.64 17.5709 3.64C18.6909 3.64 19.6909 3.87333 20.5709 4.34C21.4643 4.80667 22.1643 5.47333 22.6709 6.34C23.1909 7.20667 23.4509 8.22 23.4509 9.38C23.4509 10.54 23.1909 11.56 22.6709 12.44C22.1643 13.3067 21.4643 13.9733 20.5709 14.44C19.6776 14.9067 18.6709 15.14 17.5509 15.14ZM17.5509 11.74C18.0976 11.74 18.5509 11.54 18.9109 11.14C19.2843 10.7267 19.4709 10.14 19.4709 9.38C19.4709 8.62 19.2843 8.04 18.9109 7.64C18.5509 7.24 18.1043 7.04 17.5709 7.04C17.0376 7.04 16.5909 7.24 16.2309 7.64C15.8709 8.04 15.6909 8.62 15.6909 9.38C15.6909 10.1533 15.8643 10.74 16.2109 11.14C16.5576 11.54 17.0043 11.74 17.5509 11.74ZM28.9658 5.76C29.4058 5.12 29.9391 4.61333 30.5658 4.24C31.1924 3.86667 31.8658 3.68 32.5858 3.68V7.86H31.4858C30.6324 7.86 29.9991 8.02667 29.5858 8.36C29.1724 8.69333 28.9658 9.27333 28.9658 10.1V15H25.0458V3.78H28.9658V5.76ZM40.6111 11.66V15H38.9111C36.0444 15 34.6111 13.58 34.6111 10.74V7.04H33.2311V3.78H34.6111V1.06H38.5511V3.78H40.5911V7.04H38.5511V10.8C38.5511 11.1067 38.6178 11.3267 38.7511 11.46C38.8978 11.5933 39.1378 11.66 39.4711 11.66H40.6111ZM53.8891 3.78V15H49.9491V13.4C49.6157 13.9067 49.1557 14.32 48.5691 14.64C47.9824 14.9467 47.3091 15.1 46.5491 15.1C45.2424 15.1 44.2091 14.6733 43.4491 13.82C42.7024 12.9533 42.3291 11.78 42.3291 10.3V3.78H46.2291V9.8C46.2291 10.44 46.3957 10.9467 46.7291 11.32C47.0757 11.68 47.5291 11.86 48.0891 11.86C48.6624 11.86 49.1157 11.68 49.4491 11.32C49.7824 10.9467 49.9491 10.44 49.9491 9.8V3.78H53.8891ZM63.46 3.68C64.7533 3.68 65.78 4.11333 66.54 4.98C67.3 5.83333 67.68 6.99333 67.68 8.46V15H63.76V8.98C63.76 8.34 63.5933 7.84 63.26 7.48C62.9267 7.10667 62.48 6.92 61.92 6.92C61.3333 6.92 60.8733 7.10667 60.54 7.48C60.2067 7.84 60.04 8.34 60.04 8.98V15H56.12V3.78H60.04V5.38C60.3867 4.87333 60.8533 4.46667 61.44 4.16C62.0267 3.84 62.7 3.68 63.46 3.68ZM80.5509 9.26C80.5509 9.56667 80.5309 9.87333 80.4909 10.18H73.0709C73.1109 10.7933 73.2776 11.2533 73.5709 11.56C73.8776 11.8533 74.2643 12 74.7309 12C75.3843 12 75.8509 11.7067 76.1309 11.12H80.3109C80.1376 11.8933 79.7976 12.5867 79.2909 13.2C78.7976 13.8 78.1709 14.2733 77.4109 14.62C76.6509 14.9667 75.8109 15.14 74.8909 15.14C73.7843 15.14 72.7976 14.9067 71.9309 14.44C71.0776 13.9733 70.4043 13.3067 69.9109 12.44C69.4309 11.5733 69.1909 10.5533 69.1909 9.38C69.1909 8.20667 69.4309 7.19333 69.9109 6.34C70.3909 5.47333 71.0576 4.80667 71.9109 4.34C72.7776 3.87333 73.7709 3.64 74.8909 3.64C75.9976 3.64 76.9776 3.86667 77.8309 4.32C78.6843 4.77333 79.3509 5.42667 79.8309 6.28C80.3109 7.12 80.5509 8.11333 80.5509 9.26ZM76.5509 8.28C76.5509 7.8 76.3909 7.42667 76.0709 7.16C75.7509 6.88 75.3509 6.74 74.8709 6.74C74.3909 6.74 73.9976 6.87333 73.6909 7.14C73.3843 7.39333 73.1843 7.77333 73.0909 8.28H76.5509ZM5.122 28.091C4.264 28.091 3.47533 27.8917 2.756 27.493C2.03667 27.0857 1.46467 26.5267 1.04 25.816C0.624 25.0967 0.416 24.2863 0.416 23.385C0.416 22.4837 0.624 21.6777 1.04 20.967C1.46467 20.2477 2.03667 19.6887 2.756 19.29C3.47533 18.8913 4.264 18.692 5.122 18.692C5.98867 18.692 6.77733 18.8913 7.488 19.29C8.20733 19.6887 8.775 20.2477 9.191 20.967C9.607 21.6777 9.815 22.4837 9.815 23.385C9.815 24.2863 9.607 25.0967 9.191 25.816C8.775 26.5267 8.20733 27.0857 7.488 27.493C6.76867 27.8917 5.98 28.091 5.122 28.091ZM5.122 25.725C5.772 25.725 6.28333 25.5127 6.656 25.088C7.03733 24.6633 7.228 24.0957 7.228 23.385C7.228 22.657 7.03733 22.085 6.656 21.669C6.28333 21.2443 5.772 21.032 5.122 21.032C4.46333 21.032 3.94767 21.2443 3.575 21.669C3.20233 22.085 3.016 22.657 3.016 23.385C3.016 24.1043 3.20233 24.6763 3.575 25.101C3.94767 25.517 4.46333 25.725 5.122 25.725ZM15.5104 28L14.1974 26.167L13.1574 28H10.3624L12.7934 24.217L10.2584 20.707H13.1184L14.4314 22.54L15.4844 20.707H18.2794L15.7964 24.425L18.3704 28H15.5104ZM21.8665 25.816L20.4755 29.612H18.8635L19.5395 25.816H21.8665ZM30.3407 28L28.5207 24.62H28.2477V28H25.6997V18.835H29.7167C30.4533 18.835 31.0773 18.965 31.5887 19.225C32.1 19.4763 32.4857 19.8273 32.7457 20.278C33.0057 20.72 33.1357 21.2183 33.1357 21.773C33.1357 22.397 32.9623 22.9473 32.6157 23.424C32.2777 23.892 31.7793 24.2257 31.1207 24.425L33.1877 28H30.3407ZM28.2477 22.878H29.5087C29.8553 22.878 30.1153 22.7957 30.2887 22.631C30.462 22.4663 30.5487 22.228 30.5487 21.916C30.5487 21.6213 30.4577 21.3917 30.2757 21.227C30.1023 21.0537 29.8467 20.967 29.5087 20.967H28.2477V22.878ZM33.8784 24.347C33.8784 23.593 34.0127 22.9343 34.2814 22.371C34.5587 21.8077 34.9314 21.3743 35.3994 21.071C35.8761 20.7677 36.4047 20.616 36.9854 20.616C37.4881 20.616 37.9214 20.7157 38.2854 20.915C38.6494 21.1143 38.9311 21.383 39.1304 21.721V20.707H41.6784V28H39.1304V26.986C38.9311 27.324 38.6451 27.5927 38.2724 27.792C37.9084 27.9913 37.4794 28.091 36.9854 28.091C36.4047 28.091 35.8761 27.9393 35.3994 27.636C34.9314 27.3327 34.5587 26.8993 34.2814 26.336C34.0127 25.764 33.8784 25.101 33.8784 24.347ZM39.1304 24.347C39.1304 23.879 39.0004 23.5107 38.7404 23.242C38.4891 22.9733 38.1771 22.839 37.8044 22.839C37.4231 22.839 37.1067 22.9733 36.8554 23.242C36.6041 23.502 36.4784 23.8703 36.4784 24.347C36.4784 24.815 36.6041 25.1877 36.8554 25.465C37.1067 25.7337 37.4231 25.868 37.8044 25.868C38.1771 25.868 38.4891 25.7337 38.7404 25.465C39.0004 25.1963 39.1304 24.8237 39.1304 24.347ZM45.6783 21.721C45.8777 21.3743 46.1593 21.1057 46.5233 20.915C46.8873 20.7157 47.3163 20.616 47.8103 20.616C48.391 20.616 48.9153 20.7677 49.3833 21.071C49.86 21.3743 50.2327 21.8077 50.5013 22.371C50.7787 22.9343 50.9173 23.593 50.9173 24.347C50.9173 25.101 50.7787 25.764 50.5013 26.336C50.2327 26.8993 49.86 27.3327 49.3833 27.636C48.9153 27.9393 48.391 28.091 47.8103 28.091C47.3163 28.091 46.8873 27.9957 46.5233 27.805C46.1593 27.6057 45.8777 27.3327 45.6783 26.986V28H43.1303V18.38H45.6783V21.721ZM48.3303 24.347C48.3303 23.8703 48.2003 23.502 47.9403 23.242C47.689 22.9733 47.377 22.839 47.0043 22.839C46.6317 22.839 46.3153 22.9733 46.0553 23.242C45.804 23.5107 45.6783 23.879 45.6783 24.347C45.6783 24.8237 45.804 25.1963 46.0553 25.465C46.3153 25.7337 46.6317 25.868 47.0043 25.868C47.377 25.868 47.689 25.7337 47.9403 25.465C48.2003 25.1877 48.3303 24.815 48.3303 24.347ZM54.5143 21.721C54.7136 21.3743 54.9953 21.1057 55.3593 20.915C55.7233 20.7157 56.1523 20.616 56.6463 20.616C57.2269 20.616 57.7513 20.7677 58.2193 21.071C58.6959 21.3743 59.0686 21.8077 59.3373 22.371C59.6146 22.9343 59.7533 23.593 59.7533 24.347C59.7533 25.101 59.6146 25.764 59.3373 26.336C59.0686 26.8993 58.6959 27.3327 58.2193 27.636C57.7513 27.9393 57.2269 28.091 56.6463 28.091C56.1523 28.091 55.7233 27.9957 55.3593 27.805C54.9953 27.6057 54.7136 27.3327 54.5143 26.986V28H51.9663V18.38H54.5143V21.721ZM57.1663 24.347C57.1663 23.8703 57.0363 23.502 56.7763 23.242C56.5249 22.9733 56.2129 22.839 55.8403 22.839C55.4676 22.839 55.1513 22.9733 54.8913 23.242C54.6399 23.5107 54.5143 23.879 54.5143 24.347C54.5143 24.8237 54.6399 25.1963 54.8913 25.465C55.1513 25.7337 55.4676 25.868 55.8403 25.868C56.2129 25.868 56.5249 25.7337 56.7763 25.465C57.0363 25.1877 57.1663 24.815 57.1663 24.347ZM62.0892 20.031C61.6386 20.031 61.2746 19.9097 60.9972 19.667C60.7286 19.4157 60.5942 19.1037 60.5942 18.731C60.5942 18.3497 60.7286 18.0333 60.9972 17.782C61.2746 17.5307 61.6386 17.405 62.0892 17.405C62.5312 17.405 62.8866 17.5307 63.1552 17.782C63.4326 18.0333 63.5712 18.3497 63.5712 18.731C63.5712 19.1037 63.4326 19.4157 63.1552 19.667C62.8866 19.9097 62.5312 20.031 62.0892 20.031ZM63.3502 20.707V28H60.8022V20.707H63.3502ZM69.1042 25.829V28H67.9992C66.1359 28 65.2042 27.077 65.2042 25.231V22.826H64.3072V20.707H65.2042V18.939H67.7652V20.707H69.0912V22.826H67.7652V25.27C67.7652 25.4693 67.8086 25.6123 67.8952 25.699C67.9906 25.7857 68.1466 25.829 68.3632 25.829H69.1042ZM79.7422 28L79.0012 27.298C78.1779 27.8613 77.1942 28.143 76.0502 28.143C75.3309 28.143 74.7025 28.026 74.1652 27.792C73.6365 27.558 73.2249 27.2287 72.9302 26.804C72.6442 26.3793 72.5012 25.8897 72.5012 25.335C72.5012 24.7803 72.6442 24.2777 72.9302 23.827C73.2249 23.3677 73.6625 22.995 74.2432 22.709C74.0265 22.4317 73.8705 22.1673 73.7752 21.916C73.6799 21.6647 73.6322 21.396 73.6322 21.11C73.6322 20.6593 73.7492 20.2477 73.9832 19.875C74.2172 19.5023 74.5595 19.2077 75.0102 18.991C75.4695 18.7657 76.0112 18.653 76.6352 18.653C77.2679 18.653 77.8052 18.77 78.2472 19.004C78.6892 19.2293 79.0185 19.5327 79.2352 19.914C79.4605 20.2867 79.5689 20.694 79.5602 21.136H77.2072C77.2072 20.9367 77.1509 20.785 77.0382 20.681C76.9255 20.577 76.7869 20.525 76.6222 20.525C76.4489 20.525 76.3015 20.577 76.1802 20.681C76.0675 20.7763 76.0112 20.9107 76.0112 21.084C76.0112 21.3873 76.2279 21.7557 76.6612 22.189L78.8062 24.282C78.8842 24.126 78.9665 23.9397 79.0532 23.723L79.3132 23.255H81.8352L81.4582 23.983C81.1462 24.7283 80.8039 25.3567 80.4312 25.868L82.6152 28H79.7422ZM76.2192 26.102C76.6785 26.102 77.0859 26.0023 77.4412 25.803L75.6342 24.074C75.4089 24.2127 75.2399 24.373 75.1272 24.555C75.0145 24.737 74.9582 24.9233 74.9582 25.114C74.9582 25.3913 75.0709 25.6253 75.2962 25.816C75.5215 26.0067 75.8292 26.102 76.2192 26.102ZM85.5254 23.398C85.5254 22.4967 85.7117 21.695 86.0844 20.993C86.4657 20.2823 87.003 19.732 87.6964 19.342C88.3897 18.9433 89.187 18.744 90.0884 18.744C91.2324 18.744 92.1944 19.0517 92.9744 19.667C93.7544 20.2737 94.257 21.1013 94.4824 22.15H91.7394C91.5747 21.8033 91.345 21.539 91.0504 21.357C90.7644 21.175 90.4307 21.084 90.0494 21.084C89.46 21.084 88.9877 21.2963 88.6324 21.721C88.2857 22.137 88.1124 22.696 88.1124 23.398C88.1124 24.1087 88.2857 24.6763 88.6324 25.101C88.9877 25.517 89.46 25.725 90.0494 25.725C90.4307 25.725 90.7644 25.634 91.0504 25.452C91.345 25.27 91.5747 25.0057 91.7394 24.659H94.4824C94.257 25.7077 93.7544 26.5397 92.9744 27.155C92.1944 27.7617 91.2324 28.065 90.0884 28.065C89.187 28.065 88.3897 27.87 87.6964 27.48C87.003 27.0813 86.4657 26.531 86.0844 25.829C85.7117 25.1183 85.5254 24.308 85.5254 23.398ZM99.0819 28.091C98.3539 28.091 97.6996 27.9393 97.1189 27.636C96.5469 27.3327 96.0963 26.8993 95.7669 26.336C95.4376 25.7727 95.2729 25.1097 95.2729 24.347C95.2729 23.593 95.4376 22.9343 95.7669 22.371C96.1049 21.8077 96.5599 21.3743 97.1319 21.071C97.7126 20.7677 98.3669 20.616 99.0949 20.616C99.8229 20.616 100.473 20.7677 101.045 21.071C101.626 21.3743 102.081 21.8077 102.41 22.371C102.748 22.9343 102.917 23.593 102.917 24.347C102.917 25.101 102.748 25.764 102.41 26.336C102.081 26.8993 101.626 27.3327 101.045 27.636C100.464 27.9393 99.8099 28.091 99.0819 28.091ZM99.0819 25.881C99.4373 25.881 99.7319 25.751 99.9659 25.491C100.209 25.2223 100.33 24.841 100.33 24.347C100.33 23.853 100.209 23.476 99.9659 23.216C99.7319 22.956 99.4416 22.826 99.0949 22.826C98.7483 22.826 98.4579 22.956 98.2239 23.216C97.9899 23.476 97.8729 23.853 97.8729 24.347C97.8729 24.8497 97.9856 25.231 98.2109 25.491C98.4363 25.751 98.7266 25.881 99.0819 25.881Z" fill="white"/>
</svg>
