<svg width="15" height="16" viewBox="0 0 15 16" fill="none" xmlns="http://www.w3.org/2000/svg">
<circle cx="7.33333" cy="8.66665" r="7.33333" fill="url(#paint0_linear_5911_4388)"/>
<g style="mix-blend-mode:overlay">
<mask id="mask0_5911_4388" style="mask-type:alpha" maskUnits="userSpaceOnUse" x="0" y="1" width="15" height="15">
<circle cx="7.33333" cy="8.66665" r="7.33333" fill="url(#paint1_linear_5911_4388)"/>
</mask>
<g mask="url(#mask0_5911_4388)">
<line x1="0.166667" y1="6.66669" x2="0.166667" y2="16" stroke="white" stroke-width="0.333333"/>
<line x1="7.49992" y1="6.66669" x2="7.49992" y2="16" stroke="white" stroke-width="0.333333"/>
<line x1="0.833415" y1="6.66669" x2="0.833415" y2="16" stroke="white" stroke-width="0.333333"/>
<line x1="8.16667" y1="6.66669" x2="8.16667" y2="16" stroke="white" stroke-width="0.333333"/>
<line x1="1.49992" y1="6.66669" x2="1.49992" y2="16" stroke="white" stroke-width="0.333333"/>
<line x1="8.83341" y1="6.66669" x2="8.83342" y2="16" stroke="white" stroke-width="0.333333"/>
<line x1="2.16667" y1="6.66669" x2="2.16667" y2="16" stroke="white" stroke-width="0.333333"/>
<line x1="9.49992" y1="6.66669" x2="9.49992" y2="16" stroke="white" stroke-width="0.333333"/>
<line x1="2.83341" y1="6.66669" x2="2.83341" y2="16" stroke="white" stroke-width="0.333333"/>
<line x1="10.1667" y1="6.66669" x2="10.1667" y2="16" stroke="white" stroke-width="0.333333"/>
<line x1="3.49992" y1="6.66669" x2="3.49992" y2="16" stroke="white" stroke-width="0.333333"/>
<line x1="10.8334" y1="6.66669" x2="10.8334" y2="16" stroke="white" stroke-width="0.333333"/>
<line x1="4.16667" y1="6.66669" x2="4.16667" y2="16" stroke="white" stroke-width="0.333333"/>
<line x1="11.4999" y1="6.66669" x2="11.4999" y2="16" stroke="white" stroke-width="0.333333"/>
<line x1="4.83341" y1="6.66669" x2="4.83341" y2="16" stroke="white" stroke-width="0.333333"/>
<line x1="12.1667" y1="6.66669" x2="12.1667" y2="16" stroke="white" stroke-width="0.333333"/>
<line x1="5.49992" y1="6.66669" x2="5.49992" y2="16" stroke="white" stroke-width="0.333333"/>
<line x1="12.8334" y1="6.66669" x2="12.8334" y2="16" stroke="white" stroke-width="0.333333"/>
<line x1="6.16667" y1="6.66669" x2="6.16667" y2="16" stroke="white" stroke-width="0.333333"/>
<line x1="13.4999" y1="6.66669" x2="13.4999" y2="16" stroke="white" stroke-width="0.333333"/>
<line x1="6.83341" y1="6.66669" x2="6.83341" y2="16" stroke="white" stroke-width="0.333333"/>
<line x1="14.1667" y1="6.66669" x2="14.1667" y2="16" stroke="white" stroke-width="0.333333"/>
<line x1="7.49992" y1="6.66669" x2="7.49992" y2="16" stroke="white" stroke-width="0.333333"/>
</g>
</g>
<circle cx="7.33333" cy="7.33333" r="7" fill="url(#paint2_linear_5911_4388)" stroke="url(#paint3_linear_5911_4388)" stroke-width="0.666667"/>
<circle cx="7.33325" cy="7.33331" r="6" fill="url(#paint4_radial_5911_4388)"/>
<defs>
<linearGradient id="paint0_linear_5911_4388" x1="7.33333" y1="1.33331" x2="7.33333" y2="16" gradientUnits="userSpaceOnUse">
<stop stop-color="#FFB800"/>
<stop offset="0.315" stop-color="#FFD600"/>
<stop offset="0.505" stop-color="#9D5E00"/>
<stop offset="0.725" stop-color="#FFC700"/>
<stop offset="1" stop-color="#FFB800"/>
</linearGradient>
<linearGradient id="paint1_linear_5911_4388" x1="7.33333" y1="1.33331" x2="7.33333" y2="16" gradientUnits="userSpaceOnUse">
<stop stop-color="#FFB800"/>
<stop offset="0.315" stop-color="#FFD600"/>
<stop offset="0.505" stop-color="#9D5E00"/>
<stop offset="0.725" stop-color="#FFCB15"/>
<stop offset="1" stop-color="#FF8A00"/>
</linearGradient>
<linearGradient id="paint2_linear_5911_4388" x1="7.33333" y1="0" x2="7.33333" y2="14.6667" gradientUnits="userSpaceOnUse">
<stop stop-color="#FFB800"/>
<stop offset="0.315" stop-color="#FFD600"/>
<stop offset="0.505" stop-color="#9D5E00"/>
<stop offset="0.725" stop-color="#FFCB15"/>
<stop offset="1" stop-color="#FF8A00"/>
</linearGradient>
<linearGradient id="paint3_linear_5911_4388" x1="7.33333" y1="0" x2="7.33333" y2="14.6667" gradientUnits="userSpaceOnUse">
<stop stop-color="#FFC700"/>
<stop offset="0.356666" stop-color="#9C4B00"/>
<stop offset="0.655" stop-color="#FF6B00"/>
<stop offset="0.825" stop-color="#FD7900"/>
<stop offset="1" stop-color="#FAFF00"/>
</linearGradient>
<radialGradient id="paint4_radial_5911_4388" cx="0" cy="0" r="1" gradientUnits="userSpaceOnUse" gradientTransform="translate(7.33325 -1.00002) rotate(90) scale(22.6667)">
<stop stop-color="#FAFF00"/>
<stop offset="0.306666" stop-color="#FFB800"/>
<stop offset="0.505" stop-color="#AA3300"/>
<stop offset="1" stop-color="#FFF500"/>
</radialGradient>
</defs>
</svg>
