<svg width="16" height="16" viewBox="0 0 16 16" fill="none" xmlns="http://www.w3.org/2000/svg">
<g clip-path="url(#clip0_5911_4454)">
<path d="M14.3918 8.58475L14.3743 8.57656C14.3915 8.38944 14.4001 8.19687 14.4001 8C14.4001 7.80312 14.3915 7.61016 14.3743 7.42306L14.3915 7.41484C14.8966 7.17775 15.2817 6.73672 15.4493 6.20469C15.6165 5.67225 15.5528 5.08984 15.2743 4.60666L14.5758 3.39375C14.2973 2.91053 13.8254 2.56366 13.2813 2.44103C12.7383 2.31916 12.1629 2.43047 11.7051 2.74806L11.6793 2.76562C11.3676 2.54413 11.036 2.35194 10.6863 2.19103L10.6883 2.16681C10.7348 1.61094 10.5449 1.05666 10.1672 0.646094C9.78988 0.235531 9.25316 0 8.69534 0H7.30472C6.74691 0 6.21019 0.235531 5.83285 0.646094C5.45513 1.05666 5.26528 1.61094 5.31175 2.16681L5.31369 2.19103C4.96407 2.35197 4.63244 2.54416 4.32072 2.76562L4.29535 2.74806C3.83675 2.43088 3.26175 2.31916 2.71878 2.44103C2.17466 2.56369 1.70275 2.91056 1.42385 3.39416L0.725815 4.60666C0.447284 5.08984 0.383628 5.67228 0.550815 6.20469C0.718377 6.73672 1.10356 7.17772 1.60785 7.41444L1.62581 7.42303C1.60863 7.61016 1.60003 7.80312 1.60003 8C1.60003 8.19687 1.60863 8.38944 1.62581 8.57656L1.60825 8.58516C1.10316 8.82225 0.718002 9.26366 0.550815 9.79569C0.383628 10.3277 0.44769 10.9102 0.725815 11.3933L1.42385 12.6055C1.70235 13.0891 2.17422 13.4363 2.71838 13.5586C3.26172 13.6809 3.83713 13.5695 4.29494 13.252L4.32072 13.2344C4.63244 13.4559 4.9641 13.6481 5.31369 13.809L5.31175 13.8333C5.26525 14.3891 5.4551 14.9434 5.83285 15.354C6.21019 15.7644 6.74691 16 7.30472 16H8.69534C9.25316 16 9.78988 15.7644 10.1672 15.3539C10.5449 14.9433 10.7348 14.3891 10.6883 13.8332L10.6864 13.809C11.036 13.648 11.3676 13.4558 11.6793 13.2343L11.7047 13.2519C12.1633 13.5691 12.7383 13.6808 13.2817 13.5585C13.8258 13.4362 14.2977 13.089 14.5762 12.6054L15.2743 11.3933C15.5524 10.9101 15.6164 10.3277 15.4493 9.79562C15.2821 9.26359 14.8969 8.82225 14.3918 8.58475ZM12.7137 7.11912C12.7711 7.38669 12.8 7.68281 12.8 8C12.8 8.31719 12.7711 8.61328 12.7137 8.88087C12.636 9.24456 12.8192 9.61406 13.1559 9.77228L13.7113 10.0328C13.8496 10.0981 13.9031 10.2125 13.9227 10.275C13.9422 10.3379 13.9641 10.4625 13.8875 10.5949L13.1895 11.8071C13.1133 11.9395 12.9946 11.9832 12.9305 11.9977C12.8672 12.0122 12.7406 12.0231 12.6153 11.9364L12.1032 11.582C11.8016 11.3734 11.3965 11.3957 11.12 11.6391C10.6712 12.0332 10.1528 12.3336 9.57897 12.5316C9.23288 12.6512 9.01219 12.9898 9.04263 13.3547L9.09378 13.9668C9.10669 14.1187 9.034 14.2227 8.9895 14.2707C8.94534 14.3192 8.84809 14.4 8.69534 14.4H7.30472C7.152 14.4 7.05472 14.3192 7.01056 14.2707C6.96603 14.2227 6.89338 14.1187 6.90628 13.9668L6.95744 13.3547C6.98791 12.9899 6.76722 12.6512 6.42113 12.5317C5.84728 12.3336 5.32894 12.0332 4.88013 11.6391C4.72975 11.5071 4.54144 11.4399 4.352 11.4399C4.19341 11.4399 4.03444 11.4868 3.89694 11.5821L3.38444 11.9364C3.25944 12.0231 3.13288 12.0122 3.0696 11.9977C3.00553 11.9832 2.88678 11.9395 2.81063 11.8071L2.11253 10.5949C2.03597 10.4625 2.05785 10.3379 2.07738 10.275C2.09691 10.2125 2.15044 10.0981 2.28872 10.0332L2.84419 9.77228C3.18091 9.61409 3.36413 9.24456 3.28638 8.88087C3.22894 8.61331 3.20006 8.31719 3.20006 8C3.20006 7.68281 3.22897 7.38672 3.28638 7.11912C3.36413 6.75584 3.18091 6.38631 2.8446 6.22813L2.28835 5.96641C2.15047 5.90156 2.09694 5.78709 2.07741 5.725C2.05788 5.66213 2.036 5.5375 2.11256 5.40506L2.81022 4.19297C2.88678 4.06053 3.00553 4.01681 3.0696 4.00234C3.13325 3.98828 3.25944 3.97697 3.38485 4.06369L3.89694 4.41797C4.1985 4.62656 4.6036 4.60353 4.88016 4.36094C5.32897 3.96678 5.84735 3.66641 6.42116 3.46837C6.76725 3.34884 6.98794 3.01016 6.95747 2.64531L6.90628 2.03319C6.89338 1.88125 6.96606 1.77731 7.01056 1.72928C7.05472 1.68084 7.15197 1.59997 7.30472 1.59997H8.69534C8.84809 1.59997 8.94534 1.68081 8.9895 1.72928C9.03403 1.77731 9.10669 1.88122 9.09378 2.03319L9.04259 2.64531C9.01213 3.01016 9.23285 3.34881 9.57894 3.46837C10.1528 3.66641 10.6711 3.96681 11.1199 4.36094C11.3961 4.6035 11.8016 4.62694 12.1031 4.41797L12.6156 4.06369C12.7406 3.97697 12.8672 3.98791 12.9305 4.00234C12.9945 4.01681 13.1133 4.06056 13.1895 4.19259L13.8875 5.40509C13.9641 5.53753 13.9422 5.66213 13.9227 5.72503C13.9031 5.78716 13.8496 5.90159 13.7109 5.96684L13.1555 6.22819C12.8192 6.38634 12.636 6.75588 12.7137 7.11912ZM8.00003 4.8C6.2356 4.8 4.80003 6.23556 4.80003 8C4.80003 9.76444 6.2356 11.2 8.00003 11.2C9.76447 11.2 11.2 9.76444 11.2 8C11.2 6.23556 9.76447 4.8 8.00003 4.8ZM8.00003 9.6C7.1176 9.6 6.40003 8.88241 6.40003 8C6.40003 7.11759 7.1176 6.4 8.00003 6.4C8.88247 6.4 9.60003 7.11756 9.60003 8C9.60003 8.88244 8.88244 9.6 8.00003 9.6Z" fill="white"/>
</g>
<defs>
<clipPath id="clip0_5911_4454">
<rect width="16" height="16" fill="white"/>
</clipPath>
</defs>
</svg>
